HIERARCHY
ROOT Hips
{
    OFFSET 0.000000 0.000000 0.000000
    CHANNELS 6 Xposition Yposition Zposition Zrotation Xrotation Yrotation
        JOINT Chest
        {
            OFFSET -0.000000 31.780966 -0.000000
            CHANNELS 3 Zrotation Xrotation Yrotation
            JOINT Neck
            {
                OFFSET -0.000000 23.880144 0.000000
                CHANNELS 3 Zrotation Xrotation Yrotation
                JOINT Head
                {
                    OFFSET -0.000000 10.511110 0.000000
                    CHANNELS 3 Zrotation Xrotation Yrotation
                    End Site
                    {
                        OFFSET -0.000000 16.244448 0.000000
                    }
                }
            }
            JOINT LeftCollar
            {
                OFFSET -0.000000 23.880144 0.000000
                CHANNELS 3 Zrotation Xrotation Yrotation
                JOINT LeftShoulder
                {
                    OFFSET 19.111111 -0.000000 0.000000
                    CHANNELS 3 Zrotation Xrotation Yrotation
                    JOINT LeftElbow
                    {
                        OFFSET 21.456259 0.000000 0.000000
                        CHANNELS 3 Zrotation Xrotation Yrotation
                        JOINT LeftWrist
                        {
                            OFFSET 25.693237 0.000000 0.000000
                            CHANNELS 3 Zrotation Xrotation Yrotation
                            End Site
                            {
                                OFFSET 0.000000 -14.333333 0.000000
                            }
                        }
                    }
                }
            }
            JOINT RightCollar
            {
                OFFSET -0.000000 23.880144 0.000000
                CHANNELS 3 Zrotation Xrotation Yrotation
                JOINT RightShoulder
                {
                    OFFSET -19.111111 0.000000 0.000000
                    CHANNELS 3 Zrotation Xrotation Yrotation
                    JOINT RightElbow
                    {
                        OFFSET -21.456259 0.000000 0.000000
                        CHANNELS 3 Zrotation Xrotation Yrotation
                        JOINT RightWrist
                        {
                            OFFSET -25.693237 0.000000 0.000000
                            CHANNELS 3 Zrotation Xrotation Yrotation
                            End Site
                            {
                                OFFSET -0.000000 -14.333333 0.000000
                            }
                        }
                    }
                }
            }
        }
    JOINT LeftHip
    {
        OFFSET 11.466667 0.000000 0.000000
        CHANNELS 3 Zrotation Xrotation Yrotation
        JOINT LeftKnee
        {
            OFFSET -0.000000 -37.225342 0.000000
            CHANNELS 3 Zrotation Xrotation Yrotation
            JOINT LeftAnkle
            {
                OFFSET -0.000000 -35.678333 0.000000
                CHANNELS 3 Zrotation Xrotation Yrotation
                End Site
                {
                    OFFSET -0.000000 -4.777778 16.244448
                }
            }
        }
    }
    JOINT RightHip
    {
        OFFSET -11.466667 0.000000 0.000000
        CHANNELS 3 Zrotation Xrotation Yrotation
        JOINT RightKnee
        {
            OFFSET -0.000000 -37.225342 0.000000
            CHANNELS 3 Zrotation Xrotation Yrotation
            JOINT RightAnkle
            {
                OFFSET -0.000000 -35.678333 0.000000
                CHANNELS 3 Zrotation Xrotation Yrotation
                End Site
                {
                    OFFSET -0.000000 -4.777778 16.244448
                }
            }
        }
    }
}
MOTION
Frames:    10
Frame Time:    0.010000
-59.567326    83.271698    -41.162827    1.949837    1.298722    39.041801    -2.653251    0.502401    -2.581170    4.652505    8.741335    -3.511464    -2.815887    -2.787364    -3.327826    -16.796598    -1.156643    8.011044    -49.514267    46.509350    -10.651595    16.685925    -12.399949    -73.208992    126.977417    30.591549    38.586803    20.345211    -0.993510    -5.377186    35.696213    18.288733    6.530175    26.556185    12.082648    48.309891    -112.104568    -38.696602    58.593845    -3.160015    6.452830    8.075328    3.642916    -1.127488    18.323763    -4.581132    -6.413361    11.268384    -1.677660    -0.409123    5.142375    -4.281758    12.042137    5.221307    -5.828266    -5.060901    -17.480797    
-59.598022    83.271729    -41.156895    1.944855    1.305981    39.049515    -2.541958    0.446247    -2.601157    3.751971    9.171253    -2.816680    -2.857619    -2.749011    -2.572154    -16.942972    -1.265766    9.036540    -49.644497    46.348721    -10.647059    16.828871    -12.579413    -73.097862    126.799370    30.547466    38.567623    20.265354    -0.858255    -4.100501    35.694351    18.531355    6.054543    26.695154    12.156304    48.209030    -112.548309    -38.837299    58.797462    -2.223030    5.390060    10.012451    2.052271    1.252496    15.432390    -4.060508    -7.905558    12.001834    -1.659601    -0.435859    5.109285    -4.287930    12.059924    5.276796    -5.838264    -5.063989    -17.503521    
-59.612762    83.254906    -41.145580    1.942403    1.327834    39.058731    -2.543836    0.474908    -2.643066    3.710350    9.008217    -2.795092    -2.777339    -2.532944    -2.563446    -16.935871    -1.313702    9.021868    -49.662334    46.278027    -10.566854    16.714365    -12.414689    -73.263054    126.953621    31.378799    38.463604    20.280325    -0.787815    -4.049407    35.719795    18.517399    6.051981    26.616199    12.129210    48.331005    -112.757782    -38.533264    58.703991    -2.455332    5.519574    9.020088    2.471405    0.867741    16.642628    -4.280349    -7.625398    11.827226    -1.653504    -0.466080    5.130126    -4.278093    12.069187    5.260626    -5.858771    -5.063256    -17.529736    
-59.634144    83.257278    -41.141720    1.943498    1.335803    39.063961    -2.552180    0.500704    -2.666691    3.716989    8.930745    -2.771204    -2.794170    -2.432880    -2.539670    -16.927895    -1.312436    9.026081    -49.642994    46.272659    -10.568567    16.626678    -12.357619    -73.298401    126.919266    31.542570    38.453602    20.300066    -0.744861    -4.013650    35.743740    18.493471    6.026718    26.549131    12.107013    48.406284    -113.004166    -38.482883    58.697891    -2.300884    5.306746    9.235737    2.234173    1.318228    16.275032    -4.223752    -7.888309    11.948746    -1.646093    -0.480913    5.124815    -4.276490    12.077590    5.268192    -5.877831    -5.060917    -17.539070    
-59.659851    83.261253    -41.137184    1.944474    1.341801    39.069336    -2.563339    0.530292    -2.693366    3.745473    8.851647    -2.752243    -2.826152    -2.335525    -2.518057    -16.920073    -1.339521    9.025442    -49.606956    46.326092    -10.579045    16.621290    -12.408935    -73.316711    126.748810    31.633961    38.504631    20.325968    -0.726841    -3.982052    35.781773    18.474712    5.972587    26.471508    12.081031    48.487732    -113.238853    -38.442440    58.718906    -2.155550    5.103307    9.449149    2.025399    1.746865    15.927003    -4.177554    -8.133247    12.057232    -1.634296    -0.495162    5.118497    -4.276391    12.086233    5.276970    -5.900908    -5.057515    -17.545929    
-59.689129    83.266068    -41.131725    1.945604    1.345991    39.074497    -2.574541    0.561710    -2.722751    3.784009    8.782011    -2.730244    -2.869822    -2.251736    -2.495234    -16.924421    -1.340211    9.028678    -49.522926    46.374565    -10.612855    16.584522    -12.408468    -73.333847    126.586594    31.708397    38.667469    20.357218    -0.700962    -3.943658    35.828484    18.429327    5.896357    26.410652    12.073456    48.547359    -113.464844    -38.418045    58.763920    -2.026761    4.918894    9.648041    1.855200    2.132018    15.616962    -4.145420    -8.348037    12.147272    -1.618338    -0.509048    5.111858    -4.277990    12.095666    5.286743    -5.924201    -5.055164    -17.551928    
-59.721313    83.271011    -41.125328    1.946638    1.348894    39.079494    -2.583157    0.594159    -2.755332    3.825332    8.727185    -2.705733    -2.919988    -2.189873    -2.469023    -16.934641    -1.341836    9.035948    -49.418491    46.442169    -10.659707    16.631369    -12.441796    -73.331276    126.270271    31.672998    38.919216    20.389776    -0.668849    -3.897686    35.882122    18.365568    5.812104    26.347198    12.054914    48.614792    -113.658005    -38.391178    58.829159    -1.919292    4.760506    9.819517    1.728428    2.456683    15.361286    -4.129025    -8.523396    12.215098    -1.598475    -0.523695    5.105702    -4.281173    12.106876    5.297290    -5.929807    -5.063041    -17.564621    
-59.755695    83.275681    -41.118153    1.947515    1.350781    39.085316    -2.587476    0.627776    -2.792565    3.867785    8.687765    -2.682513    -2.974391    -2.152315    -2.443415    -16.942501    -1.371414    9.039745    -49.331089    46.536343    -10.679614    16.716908    -12.513801    -73.320358    125.921127    31.591799    39.266346    20.418201    -0.670774    -3.851709    35.947285    18.321255    5.714518    26.242025    12.011319    48.725670    -113.787010    -38.328304    58.903076    -1.835207    4.632423    9.952161    1.644967    2.710660    15.171517    -4.128035    -8.654088    12.259349    -1.575216    -0.539782    5.100770    -4.285481    12.121386    5.307913    -5.878713    -5.101852    -17.601746    
-59.791409    83.279930    -41.110386    1.948669    1.350952    39.093857    -2.585516    0.663572    -2.836732    3.906186    8.665461    -2.659174    -3.030295    -2.139982    -2.419845    -16.959251    -1.334015    9.039343    -49.208839    46.563599    -10.730491    16.738264    -12.464018    -73.317314    125.649017    31.500767    39.654007    20.439457    -0.706537    -3.806124    36.023052    18.292994    5.594611    26.122828    11.982214    48.842793    -113.876122    -38.233097    58.975410    -1.774118    4.536775    10.038564    1.601468    2.891073    15.053007    -4.141148    -8.738960    12.279622    -1.549260    -0.556325    5.097688    -4.289888    12.140114    5.317336    -5.718256    -5.199572    -17.693325    
-59.827579    83.283821    -41.101967    1.950992    1.347993    39.106972    -2.576155    0.703738    -2.890072    3.937898    8.657825    -2.637850    -3.085946    -2.148006    -2.395957    -16.964247    -1.334810    9.034990    -49.130859    46.626106    -10.760008    16.816011    -12.548454    -73.304489    125.349648    31.331869    39.959892    20.458269    -0.679744    -3.761516    36.091740    18.190334    5.483693    26.106714    12.006697    48.868992    -113.981140    -38.169979    59.086548    -1.733282    4.473586    10.078331    1.591647    3.002224    15.002487    -4.165903    -8.781182    12.277494    -1.521245    -0.570768    5.097055    -4.293165    12.163087    5.324489    -5.399343    -5.382166    -17.877113    
